<svg version="1.1" id="Layer_1" xmlns="http://www.w3.org/2000/svg" xmlns:xlink="http://www.w3.org/1999/xlink" x="0px" y="0px"
	 width="100%" viewBox="0 0 533 600" enable-background="new 0 0 533 600" xml:space="preserve">
<path fill="#000000" opacity="1.000000" stroke="none" 
	d="
M1.000000,210.000000 
	C1.000000,140.015320 1.000000,70.530632 1.000000,1.022972 
	C178.612198,1.022972 356.224396,1.022972 533.918335,1.022972 
	C533.918335,200.901443 533.918335,400.802917 533.918335,600.852173 
	C356.333435,600.852173 178.666733,600.852173 1.000000,600.852173 
	C1.000000,470.775421 1.000000,340.637726 1.000000,210.000000 
M529.041382,248.077454 
	C528.425049,246.017700 527.808716,243.957947 527.067078,241.174194 
	C527.003845,240.443817 526.940613,239.713440 526.889465,238.447998 
	C526.610474,238.236984 526.331543,238.025986 525.868225,237.297958 
	C525.309814,236.843201 524.751465,236.388428 523.958252,235.412766 
	C523.629639,235.250305 523.301086,235.087860 523.093506,235.033203 
	C523.093506,235.033203 523.203247,234.913986 522.847778,234.284714 
	C521.798523,232.154144 520.749329,230.023575 519.640869,227.772675 
	C521.155457,227.015488 522.322754,226.686996 523.150513,225.967728 
	C525.195496,224.190964 527.084839,222.235062 529.036804,220.351212 
	C527.098694,218.425858 525.440796,216.031754 523.165039,214.671249 
	C518.190430,211.697327 517.802612,210.177017 521.890686,205.678452 
	C526.658569,200.431824 526.267639,197.019775 520.472229,193.298645 
	C524.984375,186.735245 523.939270,181.018127 517.284058,176.760834 
	C515.541504,175.646072 513.563660,174.803284 511.586426,174.172409 
	C508.232300,173.102188 506.894440,171.220810 508.024261,167.696259 
	C509.572845,162.865372 507.147461,159.500961 503.363617,157.113113 
	C500.687469,155.424301 497.619659,154.356171 494.583740,152.944473 
	C496.730835,145.878021 490.893921,145.199402 486.410583,143.471985 
	C491.396729,137.788818 491.266998,134.795425 486.134125,132.471146 
	C479.940918,129.666702 473.736206,126.887627 467.530762,124.095016 
	C470.296692,118.680817 468.600586,116.190361 460.327057,113.586662 
	C464.577881,108.869362 460.046875,106.953171 458.225464,105.359749 
	C458.225464,101.111870 459.075256,97.543243 458.049927,94.635941 
	C455.864136,88.438255 449.376068,88.152756 444.153595,86.386414 
	C445.797546,80.081467 442.280090,73.325935 425.542175,68.545662 
	C428.425262,61.251293 427.516602,59.051304 419.698181,56.967426 
	C415.791504,55.926155 411.596619,55.966003 407.439026,55.506569 
	C405.418579,50.088699 398.989258,45.717442 392.488403,44.864101 
	C389.518005,44.474190 386.491333,43.458397 383.820862,42.083977 
	C379.784454,40.006538 376.243378,36.890923 372.108795,35.101341 
	C368.020111,33.331593 363.338867,32.978165 359.129791,31.427395 
	C353.626190,29.399660 348.331055,26.805962 342.372162,24.205181 
	C342.922302,21.092628 339.496796,20.408405 336.485260,20.061220 
	C330.926453,19.420372 325.303650,19.353224 319.716431,18.929003 
	C318.125458,18.808205 316.496796,18.462126 315.005341,17.900717 
	C311.800690,16.694424 308.681946,15.261484 305.509552,13.966589 
	C304.776764,13.667485 303.457153,13.760229 303.275696,13.317150 
	C301.369812,8.663128 297.168823,9.428069 293.472809,8.955627 
	C291.346741,8.683863 289.189178,8.508147 287.116791,7.999784 
	C283.463501,7.103614 279.848999,5.091663 276.246338,5.154588 
	C269.568359,5.271226 262.910583,6.546350 255.354172,7.107906 
	C251.089981,8.038267 246.752121,8.725961 242.589233,9.989928 
	C240.089401,10.748939 237.992035,12.850562 235.489670,13.580982 
	C226.725204,16.139263 216.760849,14.871872 209.394714,21.937702 
	C208.964890,22.349977 207.787598,22.023922 206.961884,21.976587 
	C188.008591,20.890087 173.960907,31.598206 159.787399,41.819256 
	C158.331070,42.869469 157.985886,45.460510 157.003326,47.602009 
	C150.873672,48.600624 144.738785,50.114574 144.579788,58.805084 
	C138.500839,58.711056 132.695465,58.952080 129.159637,64.789009 
	C128.750305,65.464752 127.403030,65.592224 126.474846,65.930656 
	C117.899925,69.057228 111.010292,73.956932 108.014793,83.114944 
	C107.663979,84.187447 106.881126,85.404938 105.945709,85.953384 
	C99.937836,89.475914 99.352448,90.672890 100.935371,97.431023 
	C88.483147,100.192459 85.867043,104.068550 90.828117,112.615463 
	C85.820610,114.962616 78.320145,114.599091 79.076202,123.154839 
	C68.088860,127.732819 67.028000,129.464767 68.179688,140.790741 
	C55.445450,141.552963 52.122665,144.279434 53.579960,152.822617 
	C49.460491,153.972198 47.575375,156.207062 50.115643,160.349869 
	C45.726917,163.595703 37.501461,161.682526 37.660454,170.186371 
	C26.890881,173.751892 24.468119,180.312500 29.670977,188.794357 
	C26.931370,192.606796 23.021023,195.808594 22.393637,199.559494 
	C21.781826,203.217331 24.526083,207.436508 25.852911,211.584229 
	C15.460482,216.235489 13.638748,219.753113 18.963188,226.481918 
	C10.543888,230.477631 10.310596,233.202362 17.490051,241.359619 
	C12.732216,243.947525 6.577338,245.023788 5.109611,251.509918 
	C3.766698,257.444458 7.481267,260.975739 12.307528,263.603180 
	C5.071414,269.594299 5.378006,271.049194 14.178798,278.418396 
	C14.178798,282.059387 13.281582,285.256226 14.427808,287.315887 
	C15.605134,289.431458 18.611389,291.166504 21.120981,291.740723 
	C24.202135,292.445740 25.381155,293.439270 25.048521,296.611816 
	C24.680233,300.124451 26.220217,302.857819 29.723160,303.885559 
	C34.905590,305.406036 40.187443,306.586487 45.376587,308.086060 
	C46.547462,308.424408 48.227386,309.306091 48.453629,310.234711 
	C49.932442,316.304504 54.376377,319.240967 59.646969,321.258911 
	C63.163494,322.605286 66.836121,323.543915 70.378174,324.646149 
	C72.208984,334.021210 79.853127,334.996033 87.166595,336.506165 
	C89.403816,342.861694 93.939308,345.958862 100.998566,346.051300 
	C102.972954,346.077118 105.099983,345.962860 106.887032,346.632904 
	C112.371201,348.689117 117.724388,351.094604 123.342720,353.695312 
	C123.537926,353.888611 123.771423,354.005585 124.002747,353.978882 
	C124.002747,353.978882 123.935371,354.019226 123.985329,354.736969 
	C131.307861,368.272980 141.969437,378.596527 154.727280,386.976593 
	C161.850357,391.655457 169.457443,395.878143 175.686172,401.574951 
	C186.155960,411.150574 197.559708,418.327515 211.580795,421.103760 
	C223.570175,423.477692 235.281891,426.611481 245.294800,434.149384 
	C248.354126,436.452454 250.019547,438.999084 250.139587,443.230743 
	C250.329681,449.931793 251.224991,456.697632 252.633179,463.262024 
	C255.775146,477.908905 255.917160,492.577545 254.045258,507.333344 
	C253.134430,514.513184 251.218719,521.654907 251.128647,528.831055 
	C250.937012,544.100220 251.532288,559.384827 252.109558,574.651550 
	C252.186249,576.680054 253.577057,579.166443 255.146881,580.542053 
	C261.579285,586.178894 268.316772,591.467712 275.586151,596.700256 
	C281.716827,591.939758 288.065247,587.430664 293.924225,582.356445 
	C301.583496,575.723022 306.560944,571.750122 301.960114,558.859253 
	C300.987885,556.135193 300.523865,553.086731 300.518341,550.186401 
	C300.498291,539.655945 301.654022,529.047607 300.738403,518.611511 
	C299.193634,501.003479 295.804810,483.522980 298.096313,465.753204 
	C298.658386,461.394714 298.594299,456.036865 301.088593,453.008636 
	C310.769318,441.255646 321.344757,430.237732 331.659393,419.012543 
	C332.488464,418.110291 333.808624,417.316986 334.999512,417.140381 
	C355.872955,414.045410 373.006836,403.719269 387.436584,388.975037 
	C399.860718,376.280090 408.451447,360.990204 414.986755,344.077972 
	C421.252289,343.066132 427.533051,342.137482 433.774994,340.996521 
	C435.908936,340.606506 437.925598,339.613617 440.030365,339.018127 
	C446.236145,337.262360 454.615662,339.144531 455.498413,330.813232 
	C460.313293,328.619781 464.181061,326.857788 468.585876,324.694427 
	C468.397766,323.207336 468.209686,321.720245 467.981079,319.913086 
	C470.585693,319.319611 473.245300,318.713593 476.021515,318.908905 
	C477.320068,319.279205 478.778778,320.233643 479.892090,319.928375 
	C489.671173,317.247284 499.791962,315.272614 509.024994,311.272949 
	C521.285706,305.961761 528.926025,296.361542 529.676086,281.815216 
	C529.735962,280.891785 529.795837,279.968323 530.002747,278.112091 
	C529.971985,270.076416 529.941223,262.040741 530.043213,253.251144 
	C529.991455,252.490753 529.939697,251.730362 529.984558,250.331009 
	C529.673828,249.835831 529.363098,249.340668 529.041382,248.077454 
z"/>
<path fill="#82CB06" opacity="1.000000" stroke="none" 
	d="
M256.244415,7.339032 
	C262.910583,6.546350 269.568359,5.271226 276.246338,5.154588 
	C279.848999,5.091663 283.463501,7.103614 287.116791,7.999784 
	C289.189178,8.508147 291.346741,8.683863 293.472809,8.955627 
	C297.168823,9.428069 301.369812,8.663128 303.275696,13.317150 
	C303.457153,13.760229 304.776764,13.667485 305.509552,13.966589 
	C308.681946,15.261484 311.800690,16.694424 315.005341,17.900717 
	C316.496796,18.462126 318.125458,18.808205 319.716431,18.929003 
	C325.303650,19.353224 330.926453,19.420372 336.485260,20.061220 
	C339.496796,20.408405 342.922302,21.092628 342.372162,24.205181 
	C348.331055,26.805962 353.626190,29.399660 359.129791,31.427395 
	C363.338867,32.978165 368.020111,33.331593 372.108795,35.101341 
	C376.243378,36.890923 379.784454,40.006538 383.820862,42.083977 
	C386.491333,43.458397 389.518005,44.474190 392.488403,44.864101 
	C398.989258,45.717442 405.418579,50.088699 407.439026,55.506569 
	C411.596619,55.966003 415.791504,55.926155 419.698181,56.967426 
	C427.516602,59.051304 428.425262,61.251293 425.542175,68.545662 
	C442.280090,73.325935 445.797546,80.081467 444.153595,86.386414 
	C449.376068,88.152756 455.864136,88.438255 458.049927,94.635941 
	C459.075256,97.543243 458.225464,101.111870 458.225464,105.359749 
	C460.046875,106.953171 464.577881,108.869362 460.327057,113.586662 
	C468.600586,116.190361 470.296692,118.680817 467.530762,124.095016 
	C473.736206,126.887627 479.940918,129.666702 486.134125,132.471146 
	C491.266998,134.795425 491.396729,137.788818 486.410583,143.471985 
	C490.893921,145.199402 496.730835,145.878021 494.583740,152.944473 
	C497.619659,154.356171 500.687469,155.424301 503.363617,157.113113 
	C507.147461,159.500961 509.572845,162.865372 508.024261,167.696259 
	C506.894440,171.220810 508.232300,173.102188 511.586426,174.172409 
	C513.563660,174.803284 515.541504,175.646072 517.284058,176.760834 
	C523.939270,181.018127 524.984375,186.735245 520.472229,193.298645 
	C526.267639,197.019775 526.658569,200.431824 521.890686,205.678452 
	C517.802612,210.177017 518.190430,211.697327 523.165039,214.671249 
	C525.440796,216.031754 527.098694,218.425858 529.036804,220.351196 
	C527.084839,222.235062 525.195496,224.190964 523.150513,225.967728 
	C522.322754,226.686996 521.155457,227.015488 519.640869,227.772675 
	C520.749329,230.023575 521.798523,232.154144 522.639160,234.580475 
	C520.631409,233.446060 517.949036,232.362198 517.223267,230.511154 
	C515.857361,227.027313 513.632935,225.693390 510.283112,224.952209 
	C508.746399,224.612213 506.875397,223.535629 506.133820,222.235367 
	C502.771545,216.340103 495.669128,214.152878 488.381287,217.123398 
	C480.353607,220.395523 477.523834,225.766479 479.945160,233.027710 
	C476.254944,236.880569 473.473724,241.889801 467.163269,242.190384 
	C466.228668,242.234909 464.738159,243.869843 464.600525,244.913483 
	C464.177551,248.120163 461.801483,248.405319 459.543213,249.531296 
	C457.233185,250.683105 453.878418,252.892212 453.809601,254.743622 
	C453.656677,258.857483 451.779297,260.015045 448.491669,261.199188 
	C445.305481,262.346802 442.418915,265.052856 445.375916,268.377533 
	C448.234833,271.591919 451.640472,274.154877 453.265503,278.433746 
	C453.708313,279.599701 455.942749,280.517334 457.476501,280.751129 
	C461.221313,281.321960 465.033112,281.518280 468.825836,281.689484 
	C471.950012,281.830505 475.179993,281.228088 478.198822,281.808960 
	C488.485718,283.788269 497.328552,278.736725 506.642578,276.217468 
	C510.820251,275.087524 514.792908,272.775818 518.476685,270.406555 
	C520.596680,269.043030 523.696167,266.101349 523.346863,264.545319 
	C521.959900,258.366974 526.321594,256.597290 529.910400,254.005066 
	C529.941223,262.040741 529.971985,270.076416 529.785889,278.869568 
	C529.396790,280.469421 529.224609,281.311737 529.052429,282.154083 
	C528.926025,296.361542 521.285706,305.961761 509.024994,311.272949 
	C499.791962,315.272614 489.671173,317.247284 479.892090,319.928375 
	C478.778778,320.233643 477.320068,319.279205 476.230591,318.302521 
	C478.114838,316.189056 479.789978,314.681976 481.465118,313.174896 
	C481.277100,312.900391 481.089081,312.625885 480.901031,312.351379 
	C482.507965,312.016754 484.114899,311.682098 485.721832,311.347443 
	C485.697113,310.941071 485.672394,310.534668 485.647675,310.128296 
	C483.432739,309.716705 481.217804,309.305115 478.732727,308.659180 
	C476.710083,307.607910 475.005524,306.228699 473.196533,306.074493 
	C466.481995,305.502136 459.733063,305.333191 452.736481,304.789093 
	C446.508301,300.791443 441.358459,295.428284 433.188782,296.185791 
	C431.833618,296.311462 430.124176,292.615936 428.578430,290.686218 
	C428.932129,290.355896 429.285828,290.025574 429.639557,289.695251 
	C425.287872,288.655243 420.865784,287.842407 416.601318,286.520905 
	C410.492004,284.627686 409.605164,282.649902 411.584290,276.471985 
	C410.369659,276.023041 409.019806,275.761871 407.946381,275.071106 
	C406.374817,274.059753 405.001404,272.740601 403.543518,271.552612 
	C404.964905,270.335846 406.387085,269.119965 407.807495,267.902069 
	C408.978729,266.897766 411.074554,265.959412 411.154633,264.873444 
	C411.469879,260.598022 414.345886,259.118591 417.663666,258.345032 
	C424.407227,256.772736 431.230316,255.541656 437.885223,254.197311 
	C432.463654,248.609268 432.453979,248.640579 425.976990,246.641617 
	C424.724976,246.255219 423.617767,245.418976 422.380341,244.961960 
	C419.556030,243.918854 416.737488,242.806152 413.829559,242.061798 
	C411.760406,241.532166 409.507172,241.751740 407.409424,241.297989 
	C400.778870,239.863815 399.923279,238.470825 401.626678,232.079819 
	C397.926361,230.766983 394.057220,229.740067 390.505554,228.047119 
	C386.008820,225.903656 386.038086,221.842285 390.370697,219.369308 
	C392.471436,218.170242 394.723785,217.236725 397.921143,215.693832 
	C395.633301,214.774185 394.204590,214.447617 393.070496,213.683670 
	C391.521057,212.639999 390.195831,211.263443 388.774475,210.029602 
	C390.145020,208.719162 391.314636,207.007233 392.935181,206.196442 
	C395.131897,205.097351 397.667969,204.666840 400.070068,203.990768 
	C402.044312,203.435150 404.035461,202.939697 406.019135,202.417572 
	C405.987640,201.911407 405.956116,201.405243 405.924622,200.899094 
	C404.123413,200.592194 402.298676,200.383789 400.525452,199.959839 
	C395.287476,198.707550 390.035889,197.489243 384.858643,196.015228 
	C382.297638,195.286087 379.969360,193.682541 377.394165,193.071426 
	C371.110626,191.580246 364.660614,190.734360 358.459564,188.984085 
	C356.431030,188.411545 354.998444,185.812836 353.227539,184.213562 
	C351.967041,183.075272 350.730896,181.415726 349.250244,181.106110 
	C344.376953,180.087097 339.332001,179.874451 334.472412,178.807800 
	C325.056396,176.740997 324.632874,176.023438 324.715179,166.338364 
	C322.293152,166.225601 319.830841,166.252563 317.403870,165.972870 
	C308.164703,164.908096 298.899261,163.979507 289.722534,162.507858 
	C285.759155,161.872284 282.670837,159.685425 286.170227,154.663925 
	C283.490753,153.716721 281.018982,153.161819 278.890137,151.986008 
	C277.287048,151.100601 276.123566,149.419296 274.764404,148.092285 
	C276.141266,146.810989 277.348267,144.728806 278.925873,144.394287 
	C284.263855,143.262329 289.721893,142.231537 295.154816,142.112778 
	C305.155304,141.894211 315.234344,142.836426 324.575806,137.667221 
	C324.342316,133.583374 321.802185,131.586288 317.382416,131.304672 
	C315.244934,131.168488 313.117096,130.548996 311.032471,129.975433 
	C303.543762,127.915009 302.711395,126.177826 305.993683,119.750671 
	C301.185791,115.229111 301.660889,112.936440 308.070679,110.654945 
	C310.248962,109.879601 312.573425,109.273438 314.867981,109.111046 
	C321.998444,108.606392 329.147552,108.368767 336.287323,107.988602 
	C338.165863,107.888573 340.036896,107.647636 342.431122,107.422546 
	C339.935669,103.023621 337.122925,100.739616 332.747314,100.174126 
	C329.312073,99.730164 325.810028,98.980240 322.612396,97.686943 
	C315.268494,94.716667 314.871704,92.662193 319.834473,86.776100 
	C319.979156,86.604500 319.793365,86.154297 319.754028,85.756996 
	C316.196564,84.475220 312.371796,83.612907 309.129364,81.741577 
	C307.079895,80.558739 304.622131,77.822533 304.694427,75.869926 
	C304.764496,73.976616 307.567963,71.760231 309.657104,70.477409 
	C312.061005,69.001305 314.998322,68.393852 318.931946,66.962181 
	C314.361542,65.783440 311.134552,65.127502 308.024445,64.113113 
	C301.108948,61.857555 300.356232,59.412537 304.671204,53.948833 
	C302.374725,52.783459 298.275513,51.826500 298.108063,50.406017 
	C297.480743,45.085384 293.616302,45.406036 290.226318,44.498936 
	C284.603088,42.994259 284.004150,41.958244 285.623810,36.555126 
	C281.455231,35.235332 275.405762,36.445312 275.213989,29.320438 
	C275.203522,28.930971 273.528900,28.387049 272.581085,28.252844 
	C263.059784,26.904703 254.882828,22.669533 247.568146,16.377110 
	C250.518173,13.131021 253.381287,10.235026 256.244415,7.339032 
M409.493591,201.476562 
	C409.493591,201.476562 409.506165,201.513947 409.493591,201.476562 
z"/>
<path fill="#3C7400" opacity="1.000000" stroke="none" 
	d="
M255.799286,7.223469 
	C253.381287,10.235026 250.518173,13.131021 247.199326,16.400379 
	C243.883820,17.548563 240.910614,18.044321 238.185913,19.151548 
	C230.603668,22.232704 229.897461,25.851143 235.423660,31.887959 
	C235.571442,32.049408 235.442291,32.464386 235.442291,32.955307 
	C234.663376,33.123543 233.876724,33.293453 232.670624,33.389343 
	C222.503296,35.159451 212.583862,36.400845 203.080887,39.105507 
	C198.425735,40.430424 194.255905,44.145638 190.472534,47.469051 
	C189.185806,48.599350 188.907364,52.162556 189.625366,54.063755 
	C192.474304,61.607525 192.693634,61.537586 185.629074,65.295586 
	C184.464539,65.915062 183.225067,66.393631 181.748123,66.715073 
	C178.363495,65.982018 174.414703,64.005798 172.286636,65.220177 
	C164.114670,69.883507 156.522095,75.563423 148.722946,80.878113 
	C146.175323,82.614174 143.766266,84.583939 141.101639,86.111526 
	C135.893265,89.097404 130.832657,92.300987 131.160400,99.164574 
	C131.320969,102.526947 130.304977,103.723709 127.223686,104.677666 
	C121.723198,106.380585 119.340065,109.673996 120.762589,113.606789 
	C121.775017,116.405800 120.641769,117.661270 119.121956,119.649673 
	C116.450027,123.145401 114.558159,127.226402 112.064896,130.874542 
	C110.926704,132.539948 109.336990,134.116653 107.594574,135.100342 
	C104.591949,136.795471 100.993660,137.548218 98.219643,139.508942 
	C94.132141,142.398087 94.068710,145.996338 97.283585,149.763077 
	C97.999832,150.602249 98.750168,151.412323 99.834450,152.627701 
	C93.196899,154.006042 86.688400,155.261749 83.812241,161.451233 
	C80.439697,168.708954 87.569885,172.224075 91.187454,177.163284 
	C87.349899,179.057266 82.217827,179.799194 85.659828,185.202988 
	C83.839798,186.784332 82.501175,188.341492 80.821030,189.299988 
	C79.024132,190.325073 76.859825,190.684204 74.947815,191.539520 
	C74.108467,191.915009 72.843781,192.846741 72.886909,193.445618 
	C73.187927,197.624847 69.585953,198.098221 67.364540,200.099182 
	C64.821175,202.390167 61.582775,205.718552 61.622780,208.554214 
	C61.661934,211.329559 65.177719,214.337326 67.681923,216.697174 
	C69.343140,218.262589 71.909615,218.867386 74.268913,219.997040 
	C72.126076,222.641159 69.627335,225.072388 73.418503,227.371979 
	C75.755249,228.789352 78.561562,229.432587 81.015228,230.369247 
	C77.961960,236.486755 85.276466,234.550522 86.396942,237.693192 
	C83.636742,238.876419 80.855530,240.068649 76.491394,241.939423 
	C78.913574,243.321014 80.323105,244.125000 82.483345,245.357193 
	C76.822746,248.162888 72.032974,250.282227 67.498238,252.851669 
	C62.285267,255.805389 61.994911,260.475494 66.850052,263.985657 
	C69.370651,265.807983 72.402473,266.964996 75.289543,268.225067 
	C77.480919,269.181519 79.808441,269.826019 81.236031,270.319275 
	C79.522797,273.539978 76.516464,276.635651 77.069191,278.838196 
	C77.678017,281.264343 81.556686,282.869934 83.905197,284.748444 
	C82.013672,286.068359 79.972328,287.492798 77.425446,289.270050 
	C80.358078,290.619904 83.659042,291.096741 84.196404,292.576904 
	C86.000771,297.546936 90.306923,297.636993 94.092438,299.071411 
	C96.528397,299.994415 99.251884,300.945068 101.006699,302.715637 
	C104.668922,306.410797 108.484123,306.606232 112.843910,304.646881 
	C116.702713,302.912659 120.469864,300.404572 124.392868,304.758881 
	C125.118698,305.564484 126.900246,305.418945 128.520111,305.806549 
	C130.368591,306.394287 131.891464,306.887878 133.804916,307.508057 
	C128.776245,311.670685 133.416779,312.261597 135.702988,313.621887 
	C134.874908,314.967773 134.148193,316.148865 132.760330,318.404541 
	C136.700363,319.041656 139.876190,319.479950 143.016586,320.098175 
	C144.367264,320.364075 145.739868,320.834412 146.934143,321.509644 
	C149.070862,322.717773 150.933197,324.875488 153.175110,325.330048 
	C157.036362,326.113007 161.104630,325.840454 165.077591,326.127380 
	C166.343277,326.218750 168.358719,326.307404 168.706680,327.032715 
	C170.870132,331.542236 175.133286,331.257111 178.949814,331.897339 
	C188.272736,333.461243 197.805069,334.178528 206.906982,336.559723 
	C219.267227,339.793274 229.290115,335.422485 239.514587,329.144745 
	C248.093872,330.445465 256.261932,331.755341 264.464142,332.796143 
	C266.726013,333.083160 269.095947,332.631104 271.405060,332.404144 
	C274.048859,332.144257 276.691376,331.402954 279.314941,331.486053 
	C291.835205,331.882568 304.346191,332.774597 316.866028,332.890625 
	C322.597809,332.943756 328.342377,331.616089 334.468445,330.986542 
	C359.531921,337.291718 383.966125,337.814484 408.424866,327.961609 
	C424.231476,327.034729 439.570953,326.055847 454.917877,325.211731 
	C459.283783,324.971649 463.671234,325.123657 468.048828,325.095825 
	C464.181061,326.857788 460.313293,328.619781 455.498413,330.813232 
	C454.615662,339.144531 446.236145,337.262360 440.030365,339.018127 
	C437.925598,339.613617 435.908936,340.606506 433.774994,340.996521 
	C427.533051,342.137482 421.252289,343.066132 414.247467,343.836182 
	C411.980499,343.438812 410.452789,343.283203 408.547943,343.103912 
	C397.636475,347.707153 386.479431,349.402313 374.782593,349.913757 
	C362.869934,348.858368 351.413269,352.684235 339.792664,350.686890 
	C339.536011,350.642761 339.214203,350.977692 338.544220,351.115387 
	C334.884705,352.098114 331.656555,353.699127 328.313049,353.994476 
	C317.403595,354.958191 307.354889,358.952301 296.767242,361.961670 
	C291.878052,362.290955 287.291840,362.808960 282.297729,363.267426 
	C279.898560,363.161591 277.907318,363.115265 275.596558,362.963501 
	C274.200439,362.548248 273.123779,362.238464 271.724426,361.719482 
	C265.556641,362.369659 259.711487,363.229004 253.407120,364.073212 
	C234.982147,363.094147 217.016403,362.130249 198.743530,360.966156 
	C196.609451,360.232300 194.782486,359.698639 192.499512,359.119843 
	C188.895782,359.161163 185.747513,359.334442 182.600433,359.314850 
	C177.211487,359.281342 171.796249,359.410492 166.446686,358.899384 
	C163.925858,358.658478 161.531799,357.090942 158.639374,356.052429 
	C155.103516,356.351196 152.008560,356.722076 148.524384,357.108215 
	C143.129333,357.092590 138.123505,357.061707 132.908295,356.731506 
	C129.777725,355.627869 126.856544,354.823547 123.935371,354.019226 
	C123.935371,354.019226 124.002747,353.978882 123.875160,353.891357 
	C123.548325,353.647339 123.341965,353.500824 123.128502,353.364288 
	C117.724388,351.094604 112.371201,348.689117 106.887032,346.632904 
	C105.099983,345.962860 102.972954,346.077118 100.998566,346.051300 
	C93.939308,345.958862 89.403816,342.861694 87.166595,336.506165 
	C79.853127,334.996033 72.208984,334.021210 70.378174,324.646149 
	C66.836121,323.543915 63.163494,322.605286 59.646969,321.258911 
	C54.376377,319.240967 49.932442,316.304504 48.453629,310.234711 
	C48.227386,309.306091 46.547462,308.424408 45.376587,308.086060 
	C40.187443,306.586487 34.905590,305.406036 29.723160,303.885559 
	C26.220217,302.857819 24.680233,300.124451 25.048521,296.611816 
	C25.381155,293.439270 24.202135,292.445740 21.120981,291.740723 
	C18.611389,291.166504 15.605134,289.431458 14.427808,287.315887 
	C13.281582,285.256226 14.178798,282.059387 14.178798,278.418396 
	C5.378006,271.049194 5.071414,269.594299 12.307528,263.603180 
	C7.481267,260.975739 3.766698,257.444458 5.109611,251.509918 
	C6.577338,245.023788 12.732216,243.947525 17.490051,241.359619 
	C10.310596,233.202362 10.543888,230.477631 18.963188,226.481918 
	C13.638748,219.753113 15.460482,216.235489 25.852911,211.584229 
	C24.526083,207.436508 21.781826,203.217331 22.393637,199.559494 
	C23.021023,195.808594 26.931370,192.606796 29.670977,188.794357 
	C24.468119,180.312500 26.890881,173.751892 37.660454,170.186371 
	C37.501461,161.682526 45.726917,163.595703 50.115643,160.349869 
	C47.575375,156.207062 49.460491,153.972198 53.579960,152.822617 
	C52.122665,144.279434 55.445450,141.552963 68.179688,140.790741 
	C67.028000,129.464767 68.088860,127.732819 79.076202,123.154839 
	C78.320145,114.599091 85.820610,114.962616 90.828117,112.615463 
	C85.867043,104.068550 88.483147,100.192459 100.935371,97.431023 
	C99.352448,90.672890 99.937836,89.475914 105.945709,85.953384 
	C106.881126,85.404938 107.663979,84.187447 108.014793,83.114944 
	C111.010292,73.956932 117.899925,69.057228 126.474846,65.930656 
	C127.403030,65.592224 128.750305,65.464752 129.159637,64.789009 
	C132.695465,58.952080 138.500839,58.711056 144.579788,58.805084 
	C144.738785,50.114574 150.873672,48.600624 157.003326,47.602009 
	C157.985886,45.460510 158.331070,42.869469 159.787399,41.819256 
	C173.960907,31.598206 188.008591,20.890087 206.961884,21.976587 
	C207.787598,22.023922 208.964890,22.349977 209.394714,21.937702 
	C216.760849,14.871872 226.725204,16.139263 235.489670,13.580982 
	C237.992035,12.850562 240.089401,10.748939 242.589233,9.989928 
	C246.752121,8.725961 251.089981,8.038267 255.799286,7.223469 
z"/>
<path fill="#548C02" opacity="1.000000" stroke="none" 
	d="
M128.194534,305.712402 
	C126.900246,305.418945 125.118698,305.564484 124.392868,304.758881 
	C120.469864,300.404572 116.702713,302.912659 112.843910,304.646881 
	C108.484123,306.606232 104.668922,306.410797 101.006699,302.715637 
	C99.251884,300.945068 96.528397,299.994415 94.092438,299.071411 
	C90.306923,297.636993 86.000771,297.546936 84.196404,292.576904 
	C83.659042,291.096741 80.358078,290.619904 77.425446,289.270050 
	C79.972328,287.492798 82.013672,286.068359 83.905197,284.748444 
	C81.556686,282.869934 77.678017,281.264343 77.069191,278.838196 
	C76.516464,276.635651 79.522797,273.539978 81.236031,270.319275 
	C79.808441,269.826019 77.480919,269.181519 75.289543,268.225067 
	C72.402473,266.964996 69.370651,265.807983 66.850052,263.985657 
	C61.994911,260.475494 62.285267,255.805389 67.498238,252.851669 
	C72.032974,250.282227 76.822746,248.162888 82.483345,245.357193 
	C80.323105,244.125000 78.913574,243.321014 76.491394,241.939423 
	C80.855530,240.068649 83.636742,238.876419 86.396942,237.693192 
	C85.276466,234.550522 77.961960,236.486755 81.015228,230.369247 
	C78.561562,229.432587 75.755249,228.789352 73.418503,227.371979 
	C69.627335,225.072388 72.126076,222.641159 74.268913,219.997040 
	C71.909615,218.867386 69.343140,218.262589 67.681923,216.697174 
	C65.177719,214.337326 61.661934,211.329559 61.622780,208.554214 
	C61.582775,205.718552 64.821175,202.390167 67.364540,200.099182 
	C69.585953,198.098221 73.187927,197.624847 72.886909,193.445618 
	C72.843781,192.846741 74.108467,191.915009 74.947815,191.539520 
	C76.859825,190.684204 79.024132,190.325073 80.821030,189.299988 
	C82.501175,188.341492 83.839798,186.784332 85.659828,185.202988 
	C82.217827,179.799194 87.349899,179.057266 91.187454,177.163284 
	C87.569885,172.224075 80.439697,168.708954 83.812241,161.451233 
	C86.688400,155.261749 93.196899,154.006042 99.834450,152.627701 
	C98.750168,151.412323 97.999832,150.602249 97.283585,149.763077 
	C94.068710,145.996338 94.132141,142.398087 98.219643,139.508942 
	C100.993660,137.548218 104.591949,136.795471 107.594574,135.100342 
	C109.336990,134.116653 110.926704,132.539948 112.064896,130.874542 
	C114.558159,127.226402 116.450027,123.145401 119.121956,119.649673 
	C120.641769,117.661270 121.775017,116.405800 120.762589,113.606789 
	C119.340065,109.673996 121.723198,106.380585 127.223686,104.677666 
	C130.304977,103.723709 131.320969,102.526947 131.160400,99.164574 
	C130.832657,92.300987 135.893265,89.097404 141.101639,86.111526 
	C143.766266,84.583939 146.175323,82.614174 148.722946,80.878113 
	C156.522095,75.563423 164.114670,69.883507 172.286636,65.220177 
	C174.414703,64.005798 178.363495,65.982018 181.492859,66.943146 
	C177.359436,70.166061 173.030762,72.708672 169.097092,75.760452 
	C161.544327,81.619949 161.567001,86.599899 168.784973,92.615013 
	C169.258072,93.009277 169.559433,93.609642 169.923264,94.091110 
	C163.657440,100.178520 164.427475,102.910385 173.020142,105.853683 
	C174.638367,106.407982 176.254868,106.967339 179.237274,107.994545 
	C175.681946,109.225227 173.467621,109.599174 171.713196,110.703651 
	C169.754868,111.936501 168.214172,113.832794 166.491699,115.440338 
	C168.079956,116.716766 169.652313,118.013771 171.265244,119.258209 
	C171.812271,119.680267 172.461731,119.969597 173.402420,120.515892 
	C169.168411,121.663467 165.377838,122.368385 161.835068,123.721901 
	C155.529663,126.130898 155.323532,128.063660 160.455017,132.369492 
	C160.626938,132.513748 160.534424,132.973145 160.572464,133.359818 
	C157.615311,134.344543 154.498291,135.046936 151.731506,136.443298 
	C150.316589,137.157364 148.669510,139.136261 148.704391,140.503265 
	C148.737900,141.816727 150.619675,143.365463 152.031479,144.286026 
	C153.607407,145.313599 155.568802,145.750031 158.008698,146.693695 
	C156.121826,147.758774 154.623245,148.238159 153.648880,149.231659 
	C151.675247,151.244095 148.516495,153.578918 148.579819,155.699203 
	C148.647141,157.953537 151.589096,160.488373 153.812286,162.206573 
	C155.936279,163.848099 158.750412,164.596695 161.268753,165.741241 
	C157.078552,173.909866 157.980942,176.470169 166.338135,180.588333 
	C169.061493,181.930313 171.931305,182.975113 174.649338,184.120132 
	C172.195862,187.390717 169.804901,189.977310 168.109650,192.959412 
	C164.260284,199.730789 160.981552,206.813400 151.739304,207.749130 
	C150.218292,207.903122 148.903442,210.093430 147.493332,211.342621 
	C148.958801,212.718277 150.199219,214.709290 151.935562,215.344330 
	C155.817612,216.764099 159.946793,217.508163 164.587479,218.682343 
	C153.157120,222.817291 153.157120,222.817291 154.567673,228.213074 
	C152.290573,228.986481 150.015167,229.759308 147.739746,230.532150 
	C147.796387,230.945816 147.853027,231.359482 147.909668,231.773148 
	C149.286835,232.398376 150.664017,233.023605 152.105972,233.678253 
	C148.055038,236.536087 148.048264,238.378799 156.375015,240.725922 
	C152.499680,245.894272 152.801193,246.853989 159.230362,248.897400 
	C162.077179,249.802216 165.000275,250.466965 167.305161,251.084366 
	C167.500656,253.247620 167.676605,255.194641 167.894363,257.604156 
	C167.601196,257.857452 166.713867,258.624146 165.553040,259.627136 
	C166.995789,260.439545 167.992935,261.001007 168.001266,261.005707 
	C164.926285,263.529144 161.840027,266.061829 158.753754,268.594543 
	C161.660141,271.435577 164.566528,274.276611 167.896439,277.531616 
	C165.446991,281.755707 171.038055,281.489288 173.142456,283.180176 
	C171.911896,284.739929 170.853409,286.081604 169.794922,287.423279 
	C171.335449,288.558502 172.748108,289.971985 174.450760,290.754456 
	C176.333359,291.619659 178.481461,291.907043 181.272797,292.647369 
	C179.734177,293.740356 178.742081,294.264008 177.983871,295.021698 
	C176.442444,296.562103 175.027359,298.228943 173.560211,299.843658 
	C175.212936,301.103302 176.690521,303.007751 178.548325,303.512360 
	C187.159821,305.851227 195.781219,308.439514 204.576035,309.757782 
	C222.598770,312.459167 240.790680,314.034058 258.810638,316.751343 
	C283.485199,320.472046 308.246735,322.249969 333.178436,321.899811 
	C334.338196,321.883514 335.493256,321.649078 336.653961,321.563690 
	C343.779449,321.039459 350.914703,320.016998 358.029938,320.139069 
	C367.637085,320.303925 377.220642,321.611908 386.830750,321.924347 
	C392.620514,322.112579 398.445526,321.399353 404.247498,320.989685 
	C416.538208,320.121765 428.830811,319.265350 441.107758,318.228271 
	C444.397491,317.950378 447.725677,316.220032 450.876709,316.574585 
	C459.550995,317.550446 467.029053,313.457214 475.036377,311.699158 
	C476.493622,311.379242 477.687439,309.859436 479.002869,308.893555 
	C481.217804,309.305115 483.432739,309.716705 485.647675,310.128296 
	C485.672394,310.534668 485.697113,310.941071 485.721832,311.347443 
	C484.114899,311.682098 482.507965,312.016754 480.901031,312.351379 
	C481.089081,312.625885 481.277100,312.900391 481.465118,313.174896 
	C479.789978,314.681976 478.114838,316.189056 476.172302,317.901855 
	C473.245300,318.713593 470.585693,319.319611 467.981079,319.913086 
	C468.209686,321.720245 468.397766,323.207336 468.317352,324.895142 
	C463.671234,325.123657 459.283783,324.971649 454.917877,325.211731 
	C439.570953,326.055847 424.231476,327.034729 408.304321,327.624329 
	C404.719086,326.244537 401.624115,324.110046 398.735443,324.359894 
	C388.834564,325.216248 379.041656,324.697571 369.153442,324.305298 
	C360.211700,323.950592 351.148926,325.269043 342.230347,326.505096 
	C339.365265,326.902191 336.789368,329.385651 334.081146,330.914612 
	C328.342377,331.616089 322.597809,332.943756 316.866028,332.890625 
	C304.346191,332.774597 291.835205,331.882568 279.314941,331.486053 
	C276.691376,331.402954 274.048859,332.144257 271.405060,332.404144 
	C269.095947,332.631104 266.726013,333.083160 264.464142,332.796143 
	C256.261932,331.755341 248.093872,330.445465 239.186737,328.934326 
	C229.349640,326.425964 220.256348,324.143677 211.120956,322.044617 
	C205.951691,320.856812 200.622269,320.296844 195.525223,318.878326 
	C185.285629,316.028595 175.108749,312.928741 165.003265,309.633698 
	C160.802444,308.263947 156.578918,306.568207 152.843842,304.250244 
	C145.661697,299.793060 138.290909,300.395325 130.779083,302.517212 
	C129.702606,302.821289 129.045639,304.610504 128.194534,305.712402 
z"/>
<path fill="#5C3821" opacity="1.000000" stroke="none" 
	d="
M338.922760,351.135803 
	C339.214203,350.977692 339.536011,350.642761 339.792664,350.686890 
	C351.413269,352.684235 362.869934,348.858368 374.745575,350.301208 
	C372.129059,358.722565 369.841431,366.875671 366.141968,374.327911 
	C362.304291,382.058594 357.099487,389.110657 352.346405,396.569031 
	C352.130066,396.946472 352.059937,397.214355 351.989807,397.482269 
	C352.337952,397.336548 352.686127,397.190826 353.407990,397.009033 
	C365.859436,392.828644 376.177032,385.752319 385.258636,377.028015 
	C395.338623,367.344696 402.798035,355.659393 408.925110,343.127594 
	C410.452789,343.283203 411.980499,343.438812 413.801025,343.849823 
	C408.451447,360.990204 399.860718,376.280090 387.436584,388.975037 
	C373.006836,403.719269 355.872955,414.045410 334.999512,417.140381 
	C333.808624,417.316986 332.488464,418.110291 331.659393,419.012543 
	C321.344757,430.237732 310.769318,441.255646 301.088593,453.008636 
	C298.594299,456.036865 298.658386,461.394714 298.096313,465.753204 
	C295.804810,483.522980 299.193634,501.003479 300.738403,518.611511 
	C301.654022,529.047607 300.498291,539.655945 300.518341,550.186401 
	C300.523865,553.086731 300.987885,556.135193 301.960114,558.859253 
	C306.560944,571.750122 301.583496,575.723022 293.924225,582.356445 
	C288.065247,587.430664 281.716827,591.939758 275.317352,596.401489 
	C277.875366,587.639343 277.123901,579.560303 273.536041,571.331604 
	C272.116089,568.074890 272.381470,563.882507 272.614014,560.162048 
	C272.850677,556.374878 274.035248,552.652344 274.728638,548.887451 
	C279.301086,524.059998 280.629944,499.000977 280.007782,473.808258 
	C279.983459,472.823883 279.648285,471.847137 279.457947,470.866852 
	C278.926666,470.867432 278.395386,470.868042 277.864105,470.868622 
	C276.590637,498.376160 277.096283,526.092651 269.446716,552.892395 
	C268.643707,548.755554 267.893707,544.615723 268.073029,540.516602 
	C268.420013,532.583252 270.041870,524.649536 269.797455,516.757324 
	C269.164764,496.329163 272.477509,476.293030 274.456421,456.101868 
	C275.447052,445.994019 274.629028,435.708954 274.629028,425.504028 
	C274.285339,425.526428 273.941650,425.548798 273.597961,425.571198 
	C271.097595,440.706451 268.597229,455.841705 266.096863,470.976959 
	C264.775787,469.807281 264.256592,468.707977 264.260590,467.610596 
	C264.313751,453.012177 263.574127,438.343445 264.755646,423.832611 
	C266.440735,403.137268 269.547577,382.557678 272.047119,361.928650 
	C273.123779,362.238464 274.200439,362.548248 275.629761,363.370239 
	C280.965240,386.937927 281.432648,410.371796 281.688202,433.850159 
	C284.832367,410.349091 284.666077,386.848999 282.705658,363.326935 
	C287.291840,362.808960 291.878052,362.290955 296.752075,362.380707 
	C294.261139,379.390167 295.087494,395.670654 298.200775,412.310791 
	C299.500763,411.690582 300.299408,411.437744 300.953247,410.978699 
	C314.412537,401.529877 326.767487,390.995392 336.447235,377.444183 
	C339.519928,373.142639 341.717346,369.157532 340.899841,363.865906 
	C340.244171,359.621979 339.582031,355.379120 338.922760,351.135803 
M285.747528,547.095642 
	C285.910187,547.994324 286.072876,548.893005 286.235535,549.791687 
	C286.565521,531.758423 292.472229,513.904846 287.702484,495.864471 
	C284.439362,512.601196 284.437836,529.454163 285.747528,547.095642 
z"/>
<path fill="#855734" opacity="1.000000" stroke="none" 
	d="
M271.724457,361.719482 
	C269.547577,382.557678 266.440735,403.137268 264.755646,423.832611 
	C263.574127,438.343445 264.313751,453.012177 264.260590,467.610596 
	C264.256592,468.707977 264.775787,469.807281 266.096863,470.976959 
	C268.597229,455.841705 271.097595,440.706451 273.597961,425.571198 
	C273.941650,425.548798 274.285339,425.526428 274.629028,425.504028 
	C274.629028,435.708954 275.447052,445.994019 274.456421,456.101868 
	C272.477509,476.293030 269.164764,496.329163 269.797455,516.757324 
	C270.041870,524.649536 268.420013,532.583252 268.073029,540.516602 
	C267.893707,544.615723 268.643707,548.755554 269.446716,552.892395 
	C277.096283,526.092651 276.590637,498.376160 277.864105,470.868622 
	C278.395386,470.868042 278.926666,470.867432 279.457947,470.866852 
	C279.648285,471.847137 279.983459,472.823883 280.007782,473.808258 
	C280.629944,499.000977 279.301086,524.059998 274.728638,548.887451 
	C274.035248,552.652344 272.850677,556.374878 272.614014,560.162048 
	C272.381470,563.882507 272.116089,568.074890 273.536041,571.331604 
	C277.123901,579.560303 277.875366,587.639343 274.995239,596.493713 
	C268.316772,591.467712 261.579285,586.178894 255.146881,580.542053 
	C253.577057,579.166443 252.186249,576.680054 252.109558,574.651550 
	C251.532288,559.384827 250.937012,544.100220 251.128647,528.831055 
	C251.218719,521.654907 253.134430,514.513184 254.045258,507.333344 
	C255.917160,492.577545 255.775146,477.908905 252.633179,463.262024 
	C251.224991,456.697632 250.329681,449.931793 250.139587,443.230743 
	C250.019547,438.999084 248.354126,436.452454 245.294800,434.149384 
	C235.281891,426.611481 223.570175,423.477692 211.580795,421.103760 
	C197.559708,418.327515 186.155960,411.150574 175.686172,401.574951 
	C169.457443,395.878143 161.850357,391.655457 154.727280,386.976593 
	C141.969437,378.596527 131.307861,368.272980 123.960350,354.378113 
	C126.856544,354.823547 129.777725,355.627869 133.009079,357.045715 
	C139.904694,364.839172 147.310532,370.954834 156.384506,376.181427 
	C153.658279,369.215820 151.285950,363.154388 148.913620,357.092957 
	C152.008560,356.722076 155.103516,356.351196 158.647995,356.407776 
	C169.162613,378.382263 183.744308,395.177124 207.199707,402.773224 
	C198.648193,389.376709 194.196976,374.798767 192.955521,359.165009 
	C194.782486,359.698639 196.609451,360.232300 198.740631,361.362671 
	C201.522202,377.278503 209.216751,389.868347 219.630402,400.981232 
	C221.390808,402.859863 223.396545,405.063507 225.703094,405.775665 
	C233.967194,408.327209 242.409241,410.302460 251.262756,412.621002 
	C253.743942,397.034668 254.339905,380.597198 253.866364,364.088348 
	C259.711487,363.229004 265.556641,362.369659 271.724457,361.719482 
z"/>
<path fill="#76BE04" opacity="1.000000" stroke="none" 
	d="
M529.976807,253.628113 
	C526.321594,256.597290 521.959900,258.366974 523.346863,264.545319 
	C523.696167,266.101349 520.596680,269.043030 518.476685,270.406555 
	C514.792908,272.775818 510.820251,275.087524 506.642578,276.217468 
	C497.328552,278.736725 488.485718,283.788269 478.198822,281.808960 
	C475.179993,281.228088 471.950012,281.830505 468.825836,281.689484 
	C465.033112,281.518280 461.221313,281.321960 457.476501,280.751129 
	C455.942749,280.517334 453.708313,279.599701 453.265503,278.433746 
	C451.640472,274.154877 448.234833,271.591919 445.375916,268.377533 
	C442.418915,265.052856 445.305481,262.346802 448.491669,261.199188 
	C451.779297,260.015045 453.656677,258.857483 453.809601,254.743622 
	C453.878418,252.892212 457.233185,250.683105 459.543213,249.531296 
	C461.801483,248.405319 464.177551,248.120163 464.600525,244.913483 
	C464.738159,243.869843 466.228668,242.234909 467.163269,242.190384 
	C473.473724,241.889801 476.254944,236.880569 479.945160,233.027710 
	C477.523834,225.766479 480.353607,220.395523 488.381287,217.123398 
	C495.669128,214.152878 502.771545,216.340103 506.133820,222.235367 
	C506.875397,223.535629 508.746399,224.612213 510.283112,224.952209 
	C513.632935,225.693390 515.857361,227.027313 517.223267,230.511154 
	C517.949036,232.362198 520.631409,233.446060 522.816895,234.895111 
	C523.203247,234.913986 523.093506,235.033203 523.242798,235.138916 
	C523.659058,235.474304 523.926025,235.703979 524.193054,235.933670 
	C524.751465,236.388428 525.309814,236.843201 526.097412,237.751434 
	C526.492615,238.476730 526.676208,238.736115 526.877441,238.983063 
	C526.940613,239.713440 527.003845,240.443817 526.894043,241.786957 
	C524.055054,245.905594 525.872070,248.150558 529.025940,250.234009 
	C529.381592,250.634094 529.618958,250.821960 529.887878,250.969971 
	C529.939697,251.730362 529.991455,252.490753 529.976807,253.628113 
z"/>
<path fill="#82CB06" opacity="1.000000" stroke="none" 
	d="
M528.876099,250.061661 
	C525.872070,248.150558 524.055054,245.905594 526.956726,242.148956 
	C527.808716,243.957947 528.425049,246.017700 529.006775,248.766083 
	C528.940125,249.657013 528.908142,249.859344 528.876099,250.061661 
z"/>
<path fill="#8DDF06" opacity="1.000000" stroke="none" 
	d="
M529.364258,281.984650 
	C529.224609,281.311737 529.396790,280.469421 529.712341,279.335999 
	C529.795837,279.968323 529.735962,280.891785 529.364258,281.984650 
z"/>
<path fill="#8DDF06" opacity="1.000000" stroke="none" 
	d="
M529.025940,250.234009 
	C528.908142,249.859344 528.940125,249.657013 529.012329,249.150101 
	C529.363098,249.340668 529.673828,249.835831 529.936218,250.650482 
	C529.618958,250.821960 529.381592,250.634094 529.025940,250.234009 
z"/>
<path fill="#855734" opacity="1.000000" stroke="none" 
	d="
M123.235611,353.529785 
	C123.341965,353.500824 123.548325,353.647339 123.895386,353.924988 
	C123.771423,354.005585 123.537926,353.888611 123.235611,353.529785 
z"/>
<path fill="#82CB06" opacity="1.000000" stroke="none" 
	d="
M526.883423,238.715530 
	C526.676208,238.736115 526.492615,238.476730 526.189575,238.009949 
	C526.331543,238.025986 526.610474,238.236984 526.883423,238.715530 
z"/>
<path fill="#82CB06" opacity="1.000000" stroke="none" 
	d="
M524.075684,235.673218 
	C523.926025,235.703979 523.659058,235.474304 523.182251,235.085007 
	C523.301086,235.087860 523.629639,235.250305 524.075684,235.673218 
z"/>
<path fill="#76BE04" opacity="1.000000" stroke="none" 
	d="
M233.090057,33.463364 
	C233.876724,33.293453 234.663376,33.123543 235.442291,32.955307 
	C235.442291,32.464386 235.571442,32.049408 235.423660,31.887959 
	C229.897461,25.851143 230.603668,22.232704 238.185913,19.151548 
	C240.910614,18.044321 243.883820,17.548563 247.112427,16.750473 
	C254.882828,22.669533 263.059784,26.904703 272.581085,28.252844 
	C273.528900,28.387049 275.203522,28.930971 275.213989,29.320438 
	C275.405762,36.445312 281.455231,35.235332 285.623810,36.555126 
	C284.004150,41.958244 284.603088,42.994259 290.226318,44.498936 
	C293.616302,45.406036 297.480743,45.085384 298.108063,50.406017 
	C298.275513,51.826500 302.374725,52.783459 304.671204,53.948833 
	C300.356232,59.412537 301.108948,61.857555 308.024445,64.113113 
	C311.134552,65.127502 314.361542,65.783440 318.931946,66.962181 
	C314.998322,68.393852 312.061005,69.001305 309.657104,70.477409 
	C307.567963,71.760231 304.764496,73.976616 304.694427,75.869926 
	C304.622131,77.822533 307.079895,80.558739 309.129364,81.741577 
	C312.371796,83.612907 316.196564,84.475220 319.754028,85.756996 
	C319.793365,86.154297 319.979156,86.604500 319.834473,86.776100 
	C314.871704,92.662193 315.268494,94.716667 322.612396,97.686943 
	C325.810028,98.980240 329.312073,99.730164 332.747314,100.174126 
	C337.122925,100.739616 339.935669,103.023621 342.431122,107.422546 
	C340.036896,107.647636 338.165863,107.888573 336.287323,107.988602 
	C329.147552,108.368767 321.998444,108.606392 314.867981,109.111046 
	C312.573425,109.273438 310.248962,109.879601 308.070679,110.654945 
	C301.660889,112.936440 301.185791,115.229111 305.993683,119.750671 
	C302.711395,126.177826 303.543762,127.915009 311.032471,129.975433 
	C313.117096,130.548996 315.244934,131.168488 317.382416,131.304672 
	C321.802185,131.586288 324.342316,133.583374 324.575806,137.667221 
	C315.234344,142.836426 305.155304,141.894211 295.154816,142.112778 
	C289.721893,142.231537 284.263855,143.262329 278.925873,144.394287 
	C277.348267,144.728806 276.141266,146.810989 274.764404,148.092285 
	C276.123566,149.419296 277.287048,151.100601 278.890137,151.986008 
	C281.018982,153.161819 283.490753,153.716721 286.170227,154.663925 
	C282.670837,159.685425 285.759155,161.872284 289.722534,162.507858 
	C298.899261,163.979507 308.164703,164.908096 317.403870,165.972870 
	C319.830841,166.252563 322.293152,166.225601 324.715179,166.338364 
	C324.632874,176.023438 325.056396,176.740997 334.472412,178.807800 
	C339.332001,179.874451 344.376953,180.087097 349.250244,181.106110 
	C350.730896,181.415726 351.967041,183.075272 353.227539,184.213562 
	C354.998444,185.812836 356.431030,188.411545 358.459564,188.984085 
	C364.660614,190.734360 371.110626,191.580246 377.394165,193.071426 
	C379.969360,193.682541 382.297638,195.286087 384.858643,196.015228 
	C390.035889,197.489243 395.287476,198.707550 400.525452,199.959839 
	C402.298676,200.383789 404.123413,200.592194 405.924622,200.899094 
	C405.956116,201.405243 405.987640,201.911407 406.019135,202.417572 
	C404.035461,202.939697 402.044312,203.435150 400.070068,203.990768 
	C397.667969,204.666840 395.131897,205.097351 392.935181,206.196442 
	C391.314636,207.007233 390.145020,208.719162 388.774475,210.029602 
	C390.195831,211.263443 391.521057,212.639999 393.070496,213.683670 
	C394.204590,214.447617 395.633301,214.774185 397.921143,215.693832 
	C394.723785,217.236725 392.471436,218.170242 390.370697,219.369308 
	C386.038086,221.842285 386.008820,225.903656 390.505554,228.047119 
	C394.057220,229.740067 397.926361,230.766983 401.626678,232.079819 
	C399.923279,238.470825 400.778870,239.863815 407.409424,241.297989 
	C409.507172,241.751740 411.760406,241.532166 413.829559,242.061798 
	C416.737488,242.806152 419.556030,243.918854 422.380341,244.961960 
	C423.617767,245.418976 424.724976,246.255219 425.976990,246.641617 
	C432.453979,248.640579 432.463654,248.609268 437.885223,254.197311 
	C431.230316,255.541656 424.407227,256.772736 417.663666,258.345032 
	C414.345886,259.118591 411.469879,260.598022 411.154633,264.873444 
	C411.074554,265.959412 408.978729,266.897766 407.807495,267.902069 
	C406.387085,269.119965 404.964905,270.335846 403.543518,271.552612 
	C405.001404,272.740601 406.374817,274.059753 407.946381,275.071106 
	C409.019806,275.761871 410.369659,276.023041 411.584290,276.471985 
	C409.605164,282.649902 410.492004,284.627686 416.601318,286.520905 
	C420.865784,287.842407 425.287872,288.655243 429.639557,289.695251 
	C429.285828,290.025574 428.932129,290.355896 428.578430,290.686218 
	C430.124176,292.615936 431.833618,296.311462 433.188782,296.185791 
	C441.358459,295.428284 446.508301,300.791443 452.394226,304.971191 
	C441.231323,305.752289 430.150238,306.130737 419.068848,306.500153 
	C416.934845,306.571320 414.619965,306.082031 412.693390,306.741699 
	C396.950226,312.132416 380.649750,312.641785 364.354156,311.781982 
	C356.645050,311.375244 348.186584,311.821716 342.103546,305.016266 
	C341.312012,304.130737 339.331360,304.176605 337.877808,304.036102 
	C329.944366,303.269348 321.985504,302.727295 314.077057,301.765167 
	C311.935211,301.504578 309.938141,300.053406 308.273804,299.026672 
	C311.933411,298.270996 315.253479,297.850403 318.441467,296.958038 
	C324.517334,295.257263 324.914459,294.412109 323.387451,288.307037 
	C324.577850,287.812347 325.964539,287.529327 326.972168,286.753815 
	C328.843109,285.313812 330.492828,283.586426 332.234619,281.978668 
	C330.350433,280.560699 328.507935,279.081238 326.558685,277.759186 
	C325.905029,277.315826 324.988861,277.228638 324.176300,277.055664 
	C320.205353,276.210602 316.228851,275.391479 311.133087,274.329529 
	C312.887299,273.255859 313.610321,272.933350 314.186127,272.439301 
	C316.236847,270.679718 318.237457,268.861755 320.257050,267.065918 
	C317.961884,265.139893 315.721222,263.142242 313.339508,261.329956 
	C312.591644,260.760895 311.471039,260.667938 310.510254,260.395081 
	C307.578094,259.562256 304.640717,258.747955 301.226074,257.792297 
	C307.983673,246.480438 296.741516,247.815628 292.974274,244.142105 
	C295.200897,237.826279 294.399475,236.094818 287.978485,233.873505 
	C285.477081,233.008148 282.863403,232.387466 280.252258,231.936890 
	C275.855316,231.178207 271.419525,230.644272 267.258301,229.769897 
	C270.329529,228.349365 273.142548,227.174759 275.941254,226.006104 
	C275.547119,218.141647 283.852051,222.763596 286.404663,219.560135 
	C282.450958,218.731644 277.463776,219.069992 274.570618,216.771988 
	C269.624908,212.843597 264.139587,213.038284 258.714905,212.023315 
	C254.701324,211.272385 250.236618,211.448593 248.716156,206.175873 
	C248.511826,205.467285 246.481812,205.162354 245.248474,204.896500 
	C241.671188,204.125366 236.996109,204.624985 234.717102,202.509125 
	C230.875061,198.942093 226.454407,199.083817 222.179764,197.846893 
	C220.850159,197.462143 219.752197,196.276886 217.909576,195.023819 
	C225.173767,190.082047 235.170547,194.300430 239.770660,186.168777 
	C238.017990,184.732162 236.427368,183.428375 234.836731,182.124573 
	C236.323914,180.559219 237.811096,178.993851 239.695084,177.010834 
	C237.571152,176.528229 235.737457,176.347534 234.089050,175.697220 
	C225.794617,172.424973 217.180984,169.701538 209.411758,165.447800 
	C204.023849,162.497849 204.959183,157.578232 210.957901,155.779465 
	C216.303619,154.176514 222.012070,153.619614 227.606384,153.063293 
	C231.745117,152.651718 235.957672,152.982376 241.183090,152.982376 
	C234.288528,146.967133 234.833435,143.560593 242.064941,140.590942 
	C244.520233,139.582672 247.079071,138.638657 249.680420,138.208481 
	C258.040375,136.826111 266.442261,135.697418 275.546478,134.365784 
	C273.899109,133.531281 272.498688,132.821884 271.098297,132.112488 
	C271.302216,131.528687 271.506134,130.944885 271.710052,130.361084 
	C274.834259,128.773895 277.958466,127.186714 281.307587,125.485252 
	C278.360718,124.600128 275.682068,123.795563 273.247253,122.766815 
	C278.096436,119.896400 276.343018,116.744293 273.900024,113.768303 
	C282.193420,108.159729 282.193420,108.159729 274.968109,102.973648 
	C277.906128,99.064110 275.260284,97.446404 271.964386,96.211082 
	C270.728088,95.747711 269.368683,95.119133 268.130432,95.238808 
	C262.260834,95.806091 258.468506,92.560349 255.022491,88.524910 
	C250.939499,83.743591 246.316544,79.782166 239.695923,79.284027 
	C232.813828,78.766220 225.918839,78.419861 218.592758,77.996918 
	C209.284576,76.961411 200.211456,76.792221 192.056854,72.684418 
	C192.029495,72.222069 192.002136,71.759727 191.974792,71.297379 
	C195.895401,69.892197 199.816010,68.487015 203.854111,67.039726 
	C198.820297,61.538078 199.442123,59.407112 206.495361,57.047729 
	C208.482513,56.383007 210.547989,55.952412 212.550735,55.421535 
	C211.142502,53.726200 209.906494,52.238224 208.670486,50.750244 
	C210.647888,49.710144 212.521255,48.281658 214.626221,47.717804 
	C218.085281,46.791233 221.694473,46.425209 225.503693,45.778103 
	C220.896530,40.537556 221.538528,38.274578 227.744644,35.920399 
	C229.573898,35.226498 231.310822,34.289146 233.090057,33.463364 
z"/>
<path fill="#65A603" opacity="1.000000" stroke="none" 
	d="
M307.874603,299.148682 
	C309.938141,300.053406 311.935211,301.504578 314.077057,301.765167 
	C321.985504,302.727295 329.944366,303.269348 337.877808,304.036102 
	C339.331360,304.176605 341.312012,304.130737 342.103546,305.016266 
	C348.186584,311.821716 356.645050,311.375244 364.354156,311.781982 
	C380.649750,312.641785 396.950226,312.132416 412.693390,306.741699 
	C414.619965,306.082031 416.934845,306.571320 419.068848,306.500153 
	C430.150238,306.130737 441.231323,305.752289 452.654785,305.194885 
	C459.733063,305.333191 466.481995,305.502136 473.196533,306.074493 
	C475.005524,306.228699 476.710083,307.607910 478.732727,308.659180 
	C477.687439,309.859436 476.493622,311.379242 475.036377,311.699158 
	C467.029053,313.457214 459.550995,317.550446 450.876709,316.574585 
	C447.725677,316.220032 444.397491,317.950378 441.107758,318.228271 
	C428.830811,319.265350 416.538208,320.121765 404.247498,320.989685 
	C398.445526,321.399353 392.620514,322.112579 386.830750,321.924347 
	C377.220642,321.611908 367.637085,320.303925 358.029938,320.139069 
	C350.914703,320.016998 343.779449,321.039459 336.653961,321.563690 
	C335.493256,321.649078 334.338196,321.883514 333.178436,321.899811 
	C308.246735,322.249969 283.485199,320.472046 258.810638,316.751343 
	C240.790680,314.034058 222.598770,312.459167 204.576035,309.757782 
	C195.781219,308.439514 187.159821,305.851227 178.548325,303.512360 
	C176.690521,303.007751 175.212936,301.103302 173.560211,299.843658 
	C175.027359,298.228943 176.442444,296.562103 177.983871,295.021698 
	C178.742081,294.264008 179.734177,293.740356 181.272797,292.647369 
	C178.481461,291.907043 176.333359,291.619659 174.450760,290.754456 
	C172.748108,289.971985 171.335449,288.558502 169.794922,287.423279 
	C170.853409,286.081604 171.911896,284.739929 173.142456,283.180176 
	C171.038055,281.489288 165.446991,281.755707 167.896439,277.531616 
	C164.566528,274.276611 161.660141,271.435577 158.753754,268.594543 
	C161.840027,266.061829 164.926285,263.529144 168.001266,261.005707 
	C167.992935,261.001007 166.995789,260.439545 165.553040,259.627136 
	C166.713867,258.624146 167.601196,257.857452 167.894363,257.604156 
	C167.676605,255.194641 167.500656,253.247620 167.305161,251.084366 
	C165.000275,250.466965 162.077179,249.802216 159.230362,248.897400 
	C152.801193,246.853989 152.499680,245.894272 156.375015,240.725922 
	C148.048264,238.378799 148.055038,236.536087 152.105972,233.678253 
	C150.664017,233.023605 149.286835,232.398376 147.909668,231.773148 
	C147.853027,231.359482 147.796387,230.945816 147.739746,230.532150 
	C150.015167,229.759308 152.290573,228.986481 154.567673,228.213074 
	C153.157120,222.817291 153.157120,222.817291 164.587479,218.682343 
	C159.946793,217.508163 155.817612,216.764099 151.935562,215.344330 
	C150.199219,214.709290 148.958801,212.718277 147.493332,211.342621 
	C148.903442,210.093430 150.218292,207.903122 151.739304,207.749130 
	C160.981552,206.813400 164.260284,199.730789 168.109650,192.959412 
	C169.804901,189.977310 172.195862,187.390717 174.649338,184.120132 
	C171.931305,182.975113 169.061493,181.930313 166.338135,180.588333 
	C157.980942,176.470169 157.078552,173.909866 161.268753,165.741241 
	C158.750412,164.596695 155.936279,163.848099 153.812286,162.206573 
	C151.589096,160.488373 148.647141,157.953537 148.579819,155.699203 
	C148.516495,153.578918 151.675247,151.244095 153.648880,149.231659 
	C154.623245,148.238159 156.121826,147.758774 158.008698,146.693695 
	C155.568802,145.750031 153.607407,145.313599 152.031479,144.286026 
	C150.619675,143.365463 148.737900,141.816727 148.704391,140.503265 
	C148.669510,139.136261 150.316589,137.157364 151.731506,136.443298 
	C154.498291,135.046936 157.615311,134.344543 160.572464,133.359818 
	C160.534424,132.973145 160.626938,132.513748 160.455017,132.369492 
	C155.323532,128.063660 155.529663,126.130898 161.835068,123.721901 
	C165.377838,122.368385 169.168411,121.663467 173.402420,120.515892 
	C172.461731,119.969597 171.812271,119.680267 171.265244,119.258209 
	C169.652313,118.013771 168.079956,116.716766 166.491699,115.440338 
	C168.214172,113.832794 169.754868,111.936501 171.713196,110.703651 
	C173.467621,109.599174 175.681946,109.225227 179.237274,107.994545 
	C176.254868,106.967339 174.638367,106.407982 173.020142,105.853683 
	C164.427475,102.910385 163.657440,100.178520 169.923264,94.091110 
	C169.559433,93.609642 169.258072,93.009277 168.784973,92.615013 
	C161.567001,86.599899 161.544327,81.619949 169.097092,75.760452 
	C173.030762,72.708672 177.359436,70.166061 181.764954,67.165390 
	C183.225067,66.393631 184.464539,65.915062 185.629074,65.295586 
	C192.693634,61.537586 192.474304,61.607525 189.625366,54.063755 
	C188.907364,52.162556 189.185806,48.599350 190.472534,47.469051 
	C194.255905,44.145638 198.425735,40.430424 203.080887,39.105507 
	C212.583862,36.400845 222.503296,35.159451 232.670624,33.389336 
	C231.310822,34.289146 229.573898,35.226498 227.744644,35.920399 
	C221.538528,38.274578 220.896530,40.537556 225.503693,45.778103 
	C221.694473,46.425209 218.085281,46.791233 214.626221,47.717804 
	C212.521255,48.281658 210.647888,49.710144 208.670486,50.750244 
	C209.906494,52.238224 211.142502,53.726200 212.550735,55.421535 
	C210.547989,55.952412 208.482513,56.383007 206.495361,57.047729 
	C199.442123,59.407112 198.820297,61.538078 203.854111,67.039726 
	C199.816010,68.487015 195.895401,69.892197 191.974792,71.297379 
	C192.002136,71.759727 192.029495,72.222069 192.056854,72.684418 
	C200.211456,76.792221 209.284576,76.961411 218.410370,78.277649 
	C218.850739,81.220322 219.036758,83.880630 219.231598,86.667213 
	C217.016769,86.970955 213.857559,87.182617 210.810059,87.881432 
	C207.431000,88.656265 205.922287,90.246254 209.352707,93.204536 
	C210.154877,93.896286 210.729019,95.285950 210.755646,96.370529 
	C210.890701,101.872238 208.412415,104.164429 203.018997,105.194183 
	C200.712097,105.634628 198.708481,107.663574 196.567062,108.970734 
	C198.152145,110.878456 199.374069,113.738449 201.393036,114.508354 
	C206.626266,116.504013 212.218597,117.549614 217.650604,119.036507 
	C219.858627,119.640907 222.015381,120.430031 224.208252,121.092804 
	C228.410645,122.362923 232.626389,124.669464 236.829147,124.652931 
	C248.889236,124.605522 260.945587,123.612411 273.003418,122.991005 
	C275.682068,123.795563 278.360718,124.600128 281.307587,125.485252 
	C277.958466,127.186714 274.834259,128.773895 271.710052,130.361084 
	C271.506134,130.944885 271.302216,131.528687 271.098297,132.112488 
	C272.498688,132.821884 273.899109,133.531281 275.546478,134.365784 
	C266.442261,135.697418 258.040375,136.826111 249.680420,138.208481 
	C247.079071,138.638657 244.520233,139.582672 242.064941,140.590942 
	C234.833435,143.560593 234.288528,146.967133 241.183090,152.982376 
	C235.957672,152.982376 231.745117,152.651718 227.606384,153.063293 
	C222.012070,153.619614 216.303619,154.176514 210.957901,155.779465 
	C204.959183,157.578232 204.023849,162.497849 209.411758,165.447800 
	C217.180984,169.701538 225.794617,172.424973 234.089050,175.697220 
	C235.737457,176.347534 237.571152,176.528229 239.695084,177.010834 
	C237.811096,178.993851 236.323914,180.559219 234.836731,182.124573 
	C236.427368,183.428375 238.017990,184.732162 239.770660,186.168777 
	C235.170547,194.300430 225.173767,190.082047 217.909576,195.023819 
	C219.752197,196.276886 220.850159,197.462143 222.179764,197.846893 
	C226.454407,199.083817 230.875061,198.942093 234.717102,202.509125 
	C236.996109,204.624985 241.671188,204.125366 245.248474,204.896500 
	C246.481812,205.162354 248.511826,205.467285 248.716156,206.175873 
	C250.236618,211.448593 254.701324,211.272385 258.714905,212.023315 
	C264.139587,213.038284 269.624908,212.843597 274.570618,216.771988 
	C277.463776,219.069992 282.450958,218.731644 286.404663,219.560135 
	C283.852051,222.763596 275.547119,218.141647 275.941254,226.006104 
	C273.142548,227.174759 270.329529,228.349365 266.954834,229.634766 
	C265.033508,229.130356 262.996796,228.880615 262.432922,227.835938 
	C260.143677,223.594589 256.201721,223.467972 252.237122,222.805695 
	C243.244034,221.303406 234.673218,223.172714 226.227646,225.841110 
	C224.160950,226.494095 222.110046,227.917542 220.732224,229.558151 
	C220.355927,230.006210 222.451767,232.530426 223.545288,234.317932 
	C219.710815,236.020615 213.344513,234.866730 214.391113,241.821747 
	C210.888763,243.279312 207.617294,244.640778 203.270233,246.449890 
	C205.890732,248.143616 207.049911,248.892853 208.116135,249.581985 
	C207.286667,250.485794 206.579437,251.256409 205.597244,252.326645 
	C208.213638,253.411148 210.331238,254.288895 212.976013,255.385162 
	C208.473572,257.151459 204.577026,258.242767 201.168365,260.188721 
	C199.260742,261.277710 197.133102,263.726013 197.024353,265.669312 
	C196.937378,267.223602 199.455994,269.547455 201.336700,270.454041 
	C204.900787,272.172089 208.762527,273.456329 212.635345,274.308014 
	C218.724518,275.647064 224.925247,276.478821 231.814484,277.650574 
	C227.513550,279.405975 223.820999,280.742218 220.305099,282.443451 
	C219.120667,283.016541 217.496063,284.672485 217.651260,285.556335 
	C217.886215,286.894348 219.293106,288.668457 220.570816,289.063019 
	C224.673630,290.329987 228.956619,291.003082 233.146667,292.003540 
	C234.692596,292.372681 236.248611,292.862823 237.667755,293.565033 
	C240.422211,294.928070 242.936081,297.241791 245.813049,297.797119 
	C251.990082,298.989441 258.331940,299.858704 264.610657,299.886444 
	C279.030609,299.950165 293.453125,299.431122 307.874603,299.148682 
z"/>
<path fill="#76BE04" opacity="1.000000" stroke="none" 
	d="
M409.499878,201.495255 
	C409.506165,201.513947 409.493591,201.476562 409.499878,201.495255 
z"/>
<path fill="#000000" opacity="1.000000" stroke="none" 
	d="
M253.407120,364.073212 
	C254.339905,380.597198 253.743942,397.034668 251.262756,412.621002 
	C242.409241,410.302460 233.967194,408.327209 225.703094,405.775665 
	C223.396545,405.063507 221.390808,402.859863 219.630402,400.981232 
	C209.216751,389.868347 201.522202,377.278503 199.047760,361.562866 
	C217.016403,362.130249 234.982147,363.094147 253.407120,364.073212 
z"/>
<path fill="#000000" opacity="1.000000" stroke="none" 
	d="
M338.544220,351.115356 
	C339.582031,355.379120 340.244171,359.621979 340.899841,363.865906 
	C341.717346,369.157532 339.519928,373.142639 336.447235,377.444183 
	C326.767487,390.995392 314.412537,401.529877 300.953247,410.978699 
	C300.299408,411.437744 299.500763,411.690582 298.200775,412.310791 
	C295.087494,395.670654 294.261139,379.390167 297.055054,362.569397 
	C307.354889,358.952301 317.403595,354.958191 328.313049,353.994476 
	C331.656555,353.699127 334.884705,352.098114 338.544220,351.115356 
z"/>
<path fill="#65A503" opacity="1.000000" stroke="none" 
	d="
M128.520111,305.806549 
	C129.045639,304.610504 129.702606,302.821289 130.779083,302.517212 
	C138.290909,300.395325 145.661697,299.793060 152.843842,304.250244 
	C156.578918,306.568207 160.802444,308.263947 165.003265,309.633698 
	C175.108749,312.928741 185.285629,316.028595 195.525223,318.878326 
	C200.622269,320.296844 205.951691,320.856812 211.120956,322.044617 
	C220.256348,324.143677 229.349640,326.425964 238.788391,328.841949 
	C229.290115,335.422485 219.267227,339.793274 206.906982,336.559723 
	C197.805069,334.178528 188.272736,333.461243 178.949814,331.897339 
	C175.133286,331.257111 170.870132,331.542236 168.706680,327.032715 
	C168.358719,326.307404 166.343277,326.218750 165.077591,326.127380 
	C161.104630,325.840454 157.036362,326.113007 153.175110,325.330048 
	C150.933197,324.875488 149.070862,322.717773 146.934143,321.509644 
	C145.739868,320.834412 144.367264,320.364075 143.016586,320.098175 
	C139.876190,319.479950 136.700363,319.041656 132.760330,318.404541 
	C134.148193,316.148865 134.874908,314.967773 135.702988,313.621887 
	C133.416779,312.261597 128.776245,311.670685 133.804916,307.508057 
	C131.891464,306.887878 130.368591,306.394287 128.520111,305.806549 
z"/>
<path fill="#000000" opacity="1.000000" stroke="none" 
	d="
M352.492615,396.459534 
	C357.099487,389.110657 362.304291,382.058594 366.141968,374.327911 
	C369.841431,366.875671 372.129059,358.722565 375.074005,350.489929 
	C386.479431,349.402313 397.636475,347.707153 408.547943,343.103912 
	C402.798035,355.659393 395.338623,367.344696 385.258636,377.028015 
	C376.177032,385.752319 365.859436,392.828644 353.278809,396.856873 
	C352.775879,396.740814 352.492615,396.459534 352.492615,396.459534 
z"/>
<path fill="#000000" opacity="1.000000" stroke="none" 
	d="
M192.499512,359.119843 
	C194.196976,374.798767 198.648193,389.376709 207.199707,402.773224 
	C183.744308,395.177124 169.162613,378.382263 159.088913,356.479919 
	C161.531799,357.090942 163.925858,358.658478 166.446686,358.899384 
	C171.796249,359.410492 177.211487,359.281342 182.600433,359.314850 
	C185.747513,359.334442 188.895782,359.161163 192.499512,359.119843 
z"/>
<path fill="#64A503" opacity="1.000000" stroke="none" 
	d="
M334.468445,330.986542 
	C336.789368,329.385651 339.365265,326.902191 342.230347,326.505096 
	C351.148926,325.269043 360.211700,323.950592 369.153442,324.305298 
	C379.041656,324.697571 388.834564,325.216248 398.735443,324.359894 
	C401.624115,324.110046 404.719086,326.244537 407.840027,327.623413 
	C383.966125,337.814484 359.531921,337.291718 334.468445,330.986542 
z"/>
<path fill="#825533" opacity="1.000000" stroke="none" 
	d="
M282.297729,363.267426 
	C284.666077,386.848999 284.832367,410.349091 281.688202,433.850159 
	C281.432648,410.371796 280.965240,386.937927 275.949219,363.475708 
	C277.907318,363.115265 279.898560,363.161591 282.297729,363.267426 
z"/>
<path fill="#000000" opacity="1.000000" stroke="none" 
	d="
M148.524384,357.108215 
	C151.285950,363.154388 153.658279,369.215820 156.384506,376.181427 
	C147.310532,370.954834 139.904694,364.839172 133.218475,357.345032 
	C138.123505,357.061707 143.129333,357.092590 148.524384,357.108215 
z"/>
<path fill="#815433" opacity="1.000000" stroke="none" 
	d="
M285.680420,546.723877 
	C284.437836,529.454163 284.439362,512.601196 287.702484,495.864471 
	C292.472229,513.904846 286.565521,531.758423 286.235535,549.791687 
	C286.072876,548.893005 285.910187,547.994324 285.680420,546.723877 
z"/>
<path fill="#000000" opacity="1.000000" stroke="none" 
	d="
M352.905090,396.892975 
	C352.686127,397.190826 352.337952,397.336548 351.989807,397.482269 
	C352.059937,397.214355 352.130066,396.946472 352.346405,396.569031 
	C352.492615,396.459534 352.775879,396.740814 352.905090,396.892975 
z"/>
<path fill="#82CB06" opacity="1.000000" stroke="none" 
	d="
M308.273804,299.026672 
	C293.453125,299.431122 279.030609,299.950165 264.610657,299.886444 
	C258.331940,299.858704 251.990082,298.989441 245.813049,297.797119 
	C242.936081,297.241791 240.422211,294.928070 237.667755,293.565033 
	C236.248611,292.862823 234.692596,292.372681 233.146667,292.003540 
	C228.956619,291.003082 224.673630,290.329987 220.570816,289.063019 
	C219.293106,288.668457 217.886215,286.894348 217.651260,285.556335 
	C217.496063,284.672485 219.120667,283.016541 220.305099,282.443451 
	C223.820999,280.742218 227.513550,279.405975 231.814484,277.650574 
	C224.925247,276.478821 218.724518,275.647064 212.635345,274.308014 
	C208.762527,273.456329 204.900787,272.172089 201.336700,270.454041 
	C199.455994,269.547455 196.937378,267.223602 197.024353,265.669312 
	C197.133102,263.726013 199.260742,261.277710 201.168365,260.188721 
	C204.577026,258.242767 208.473572,257.151459 212.976013,255.385162 
	C210.331238,254.288895 208.213638,253.411148 205.597244,252.326645 
	C206.579437,251.256409 207.286667,250.485794 208.116135,249.581985 
	C207.049911,248.892853 205.890732,248.143616 203.270233,246.449890 
	C207.617294,244.640778 210.888763,243.279312 214.391113,241.821747 
	C213.344513,234.866730 219.710815,236.020615 223.545288,234.317932 
	C222.451767,232.530426 220.355927,230.006210 220.732224,229.558151 
	C222.110046,227.917542 224.160950,226.494095 226.227646,225.841110 
	C234.673218,223.172714 243.244034,221.303406 252.237122,222.805695 
	C256.201721,223.467972 260.143677,223.594589 262.432922,227.835938 
	C262.996796,228.880615 265.033508,229.130356 266.696594,229.880676 
	C271.419525,230.644272 275.855316,231.178207 280.252258,231.936890 
	C282.863403,232.387466 285.477081,233.008148 287.978485,233.873505 
	C294.399475,236.094818 295.200897,237.826279 292.974274,244.142105 
	C296.741516,247.815628 307.983673,246.480438 301.226074,257.792297 
	C304.640717,258.747955 307.578094,259.562256 310.510254,260.395081 
	C311.471039,260.667938 312.591644,260.760895 313.339508,261.329956 
	C315.721222,263.142242 317.961884,265.139893 320.257050,267.065918 
	C318.237457,268.861755 316.236847,270.679718 314.186127,272.439301 
	C313.610321,272.933350 312.887299,273.255859 311.133087,274.329529 
	C316.228851,275.391479 320.205353,276.210602 324.176300,277.055664 
	C324.988861,277.228638 325.905029,277.315826 326.558685,277.759186 
	C328.507935,279.081238 330.350433,280.560699 332.234619,281.978668 
	C330.492828,283.586426 328.843109,285.313812 326.972168,286.753815 
	C325.964539,287.529327 324.577850,287.812347 323.387451,288.307037 
	C324.914459,294.412109 324.517334,295.257263 318.441467,296.958038 
	C315.253479,297.850403 311.933411,298.270996 308.273804,299.026672 
z"/>
<path fill="#82CB06" opacity="1.000000" stroke="none" 
	d="
M273.247253,122.766815 
	C260.945587,123.612411 248.889236,124.605522 236.829147,124.652931 
	C232.626389,124.669464 228.410645,122.362923 224.208252,121.092804 
	C222.015381,120.430031 219.858627,119.640907 217.650604,119.036507 
	C212.218597,117.549614 206.626266,116.504013 201.393036,114.508354 
	C199.374069,113.738449 198.152145,110.878456 196.567062,108.970734 
	C198.708481,107.663574 200.712097,105.634628 203.018997,105.194183 
	C208.412415,104.164429 210.890701,101.872238 210.755646,96.370529 
	C210.729019,95.285950 210.154877,93.896286 209.352707,93.204536 
	C205.922287,90.246254 207.431000,88.656265 210.810059,87.881432 
	C213.857559,87.182617 217.016769,86.970955 219.231598,86.667213 
	C219.036758,83.880630 218.850739,81.220322 218.847092,78.279266 
	C225.918839,78.419861 232.813828,78.766220 239.695923,79.284027 
	C246.316544,79.782166 250.939499,83.743591 255.022491,88.524910 
	C258.468506,92.560349 262.260834,95.806091 268.130432,95.238808 
	C269.368683,95.119133 270.728088,95.747711 271.964386,96.211082 
	C275.260284,97.446404 277.906128,99.064110 274.968109,102.973648 
	C282.193420,108.159729 282.193420,108.159729 273.900024,113.768303 
	C276.343018,116.744293 278.096436,119.896400 273.247253,122.766815 
z"/>
</svg>